<?xml version="1.0" encoding="UTF-8" standalone="no"?>
<svg
   xmlns:dc="http://purl.org/dc/elements/1.1/"
   xmlns:cc="http://creativecommons.org/ns#"
   xmlns:rdf="http://www.w3.org/1999/02/22-rdf-syntax-ns#"
   xmlns:svg="http://www.w3.org/2000/svg"
   xmlns="http://www.w3.org/2000/svg"
   height="60px"
   width="38px"
   xml:space="preserve"
   viewBox="0 0 365 560"
   id="Layer_1"
   version="1.1">	
   <path
   style="fill:#aa0000"
   id="path2"
   d="M182.9,551.7c0,0.1,0.2,0.3,0.2,0.3S358.3,283,358.3,194.6c0-130.1-88.8-186.7-175.4-186.9   C96.3,7.9,7.5,64.5,7.5,194.6c0,88.4,175.3,357.4,175.3,357.4S182.9,551.7,182.9,551.7z M122.2,187.2c0-33.6,27.2-60.8,60.8-60.8   c33.6,0,60.8,27.2,60.8,60.8S216.5,248,182.9,248C149.4,248,122.2,220.8,122.2,187.2z"
   fill="#00AEEF" />
</svg>
